<svg width="24" height="24" viewBox="0 0 24 24" fill="none" xmlns="http://www.w3.org/2000/svg">
<path d="M8.33333 20.5556C8.33333 21.9056 6.69171 23 4.66667 23C2.64163 23 1 21.9056 1 20.5556C1 19.2055 2.64163 18.1111 4.66667 18.1111C6.69171 18.1111 8.33333 19.2055 8.33333 20.5556ZM8.33333 20.5556V3.44444L23 1V18.1111M23 18.1111C23 19.4612 21.3584 20.5556 19.3333 20.5556C17.3082 20.5556 15.6667 19.4612 15.6667 18.1111C15.6667 16.761 17.3082 15.6667 19.3333 15.6667C21.3584 15.6667 23 16.761 23 18.1111ZM8.33333 8.33333L23 5.88889" stroke="white" stroke-width="2" stroke-linecap="round" stroke-linejoin="round"/>
</svg>
