<?xml version="1.0" encoding="UTF-8"?>
<svg xmlns="http://www.w3.org/2000/svg" version="1.1" width="500" height="500" viewBox="0 0 500 500"><g transform="scale(20)"><g transform="translate(0,0)"><path fill-rule="evenodd" d="M9 0L9 1L8 1L8 3L9 3L9 4L8 4L8 8L6 8L6 9L8 9L8 10L9 10L9 11L11 11L11 10L12 10L12 11L13 11L13 10L16 10L16 9L15 9L15 8L14 8L14 9L13 9L13 6L12 6L12 5L11 5L11 6L10 6L10 5L9 5L9 4L12 4L12 3L13 3L13 2L14 2L14 3L15 3L15 4L13 4L13 5L17 5L17 4L16 4L16 2L17 2L17 1L15 1L15 0L14 0L14 1L13 1L13 0L12 0L12 1L11 1L11 2L9 2L9 1L10 1L10 0ZM9 6L9 7L10 7L10 8L8 8L8 9L9 9L9 10L10 10L10 8L11 8L11 9L12 9L12 10L13 10L13 9L12 9L12 6L11 6L11 7L10 7L10 6ZM14 6L14 7L15 7L15 6ZM16 6L16 7L17 7L17 6ZM0 8L0 9L2 9L2 10L1 10L1 12L2 12L2 13L3 13L3 14L4 14L4 15L7 15L7 14L8 14L8 16L9 16L9 17L8 17L8 19L9 19L9 21L8 21L8 22L9 22L9 23L8 23L8 25L9 25L9 24L13 24L13 25L14 25L14 24L15 24L15 25L16 25L16 24L15 24L15 23L16 23L16 22L17 22L17 21L18 21L18 22L19 22L19 23L20 23L20 22L21 22L21 24L20 24L20 25L22 25L22 23L23 23L23 25L25 25L25 22L24 22L24 23L23 23L23 22L21 22L21 20L22 20L22 21L24 21L24 20L25 20L25 18L23 18L23 19L22 19L22 18L21 18L21 16L20 16L20 15L22 15L22 14L23 14L23 15L24 15L24 14L23 14L23 13L25 13L25 11L24 11L24 12L22 12L22 14L21 14L21 13L20 13L20 12L21 12L21 11L23 11L23 10L24 10L24 8L22 8L22 9L23 9L23 10L21 10L21 8L18 8L18 10L17 10L17 11L15 11L15 12L14 12L14 16L15 16L15 15L17 15L17 16L16 16L16 21L15 21L15 23L14 23L14 24L13 24L13 22L14 22L14 20L13 20L13 19L14 19L14 17L11 17L11 16L9 16L9 14L8 14L8 13L9 13L9 12L8 12L8 11L7 11L7 10L4 10L4 8L3 8L3 9L2 9L2 8ZM19 9L19 10L20 10L20 11L21 11L21 10L20 10L20 9ZM3 11L3 12L7 12L7 13L4 13L4 14L7 14L7 13L8 13L8 12L7 12L7 11ZM15 12L15 14L17 14L17 12ZM10 13L10 14L11 14L11 13ZM12 13L12 16L13 16L13 13ZM18 13L18 14L19 14L19 15L20 15L20 14L19 14L19 13ZM0 14L0 15L1 15L1 16L0 16L0 17L2 17L2 16L3 16L3 17L4 17L4 16L3 16L3 15L1 15L1 14ZM5 16L5 17L7 17L7 16ZM24 16L24 17L25 17L25 16ZM17 17L17 20L20 20L20 17ZM18 18L18 19L19 19L19 18ZM11 19L11 20L12 20L12 21L11 21L11 22L10 22L10 23L11 23L11 22L12 22L12 21L13 21L13 20L12 20L12 19ZM17 23L17 24L18 24L18 23ZM0 3.5C0 0 0 0 3.5 0M0 3.5C0 7 0 7 3.5 7M7 3.5C7 0 7 0 3.5 0M7 3.5L7 3.5L3.5 7L7 7ZA0 0 0 0 1 3.5 7A0 0 0 0 1 0 3.5A0 0 0 0 1 3.5 0A0 0 0 0 1 7 3.5M1 3.5C1 1 1 1 3.5 1M1 3.5C1 6 1 6 3.5 6M6 3.5C6 1 6 1 3.5 1M6 3.5L6 3.5L3.5 6L6 6ZA0 0 0 0 1 3.5 6A0 0 0 0 1 1 3.5A0 0 0 0 1 3.5 1A0 0 0 0 1 6 3.5M5 3.5A1.5 1.5 0 0 1 3.5 5A1.5 1.5 0 0 1 2 3.5A1.5 1.5 0 0 1 3.5 2A1.5 1.5 0 0 1 5 3.5ZM18 3.5C18 0 18 0 21.5 0M18 3.5C18 7 18 7 21.5 7M25 3.5C25 0 25 0 21.5 0M25 3.5L25 3.5L21.5 7L25 7ZA0 0 0 0 1 21.5 7A0 0 0 0 1 18 3.5A0 0 0 0 1 21.5 0A0 0 0 0 1 25 3.5M19 3.5C19 1 19 1 21.5 1M19 3.5C19 6 19 6 21.5 6M24 3.5C24 1 24 1 21.5 1M24 3.5L24 3.5L21.5 6L24 6ZA0 0 0 0 1 21.5 6A0 0 0 0 1 19 3.5A0 0 0 0 1 21.5 1A0 0 0 0 1 24 3.5M23 3.5A1.5 1.5 0 0 1 21.5 5A1.5 1.5 0 0 1 20 3.5A1.5 1.5 0 0 1 21.5 2A1.5 1.5 0 0 1 23 3.5ZM0 21.5C0 18 0 18 3.5 18M0 21.5C0 25 0 25 3.5 25M7 21.5C7 18 7 18 3.5 18M7 21.5L7 21.5L3.5 25L7 25ZA0 0 0 0 1 3.5 25A0 0 0 0 1 0 21.5A0 0 0 0 1 3.5 18A0 0 0 0 1 7 21.5M1 21.5C1 19 1 19 3.5 19M1 21.5C1 24 1 24 3.5 24M6 21.5C6 19 6 19 3.5 19M6 21.5L6 21.5L3.5 24L6 24ZA0 0 0 0 1 3.5 24A0 0 0 0 1 1 21.5A0 0 0 0 1 3.5 19A0 0 0 0 1 6 21.5M5 21.5A1.5 1.5 0 0 1 3.5 23A1.5 1.5 0 0 1 2 21.5A1.5 1.5 0 0 1 3.5 20A1.5 1.5 0 0 1 5 21.5Z" fill="#ffffff"/></g></g></svg>
